<?xml version="1.0" encoding="UTF-8"?>
<svg xmlns="http://www.w3.org/2000/svg" viewBox="0 0 1254 1254">
  <defs>
    <style>
      .cls-1 {
        fill: #8770e2;
      }

      .cls-2 {
        fill: #fff;
      }

      .cls-3 {
        fill: #353460;
      }

      .cls-4 {
        fill: #ece6f7;
      }
    </style>
  </defs>
  <g id="_图层_5" data-name="图层_5">
    <polygon class="cls-2" points="363.51 550.59 346.84 581.7 331.76 599.16 325.02 604.32 354.78 668.6 386.52 714.23 412.31 736.45 442.86 734.46 493.3 720.46 532.93 694.79 540.87 557.9 485.71 467.56 408.08 422.99 346.18 416.55 371.57 495.21 363.51 550.59"/>
    <polygon class="cls-2" points="120.58 746.73 137.51 744.95 224.24 736.45 432.94 797.68 533.72 857.43 627 961.69 738.59 841.73 916.35 770.31 1083.79 727.72 1116.49 744.95 1133.42 746.73 1159.18 811.18 1149.66 935.31 810.81 1031.78 682.12 1082.57 639.88 1103.2 565.6 1084.95 289.04 961.55 120.58 935.31 89.86 845.07 120.58 746.73"/>
  </g>
  <g id="_图层_2" data-name="图层_2">
    <path class="cls-1" d="M895.85,357.43c5.65,1.23,15.55,2.47,26.06,1.25,12.76-1.49,25.66-11.11,58.99-9.26,0,0-10.85-23.01-56.87-41.53,43.91-42.32,44.7-126.31,38.62-148-14.02,27.51-55.02,50.26-64.81,55.55s-41.13,15.47-51.53,43.24v.02c21.74,28.66,38.55,61.84,49.53,98.72,0,0,0,0,.01,0Z"/>
    <path class="cls-3" d="M973.72,619.98c-78.87-80.38-55.19-164.24-68.04-220.85-.46-2.05-.92-4.1-1.3-6.16-28.05-151.16-147.46-251.1-306.15-251.1s-238.99,78.56-271.26,117.18c-32.27,38.62-77.77,123.27-99.99,147.6-22.22,24.34-35.64,29.16-35.64,29.16,20.3,3.55,49.13-3.16,84.58-34.5-16.53,99.99,14.68,134.64,43.51,146.81,0,0-15.08-23.28-13.75-58.46,19.31,52.11,64.28,69.04,88.08,71.95-21.69-24.6-20.5-100.65-6.22-131.07,18.25,54.76,62.69,87.29,85.7,92.32,0,0-19.05-15.08-24.6-33.86,0,0,28.83,30.95,51.05,40.21,7.14,77.24,2.84,110.24-12.23,135.76,0,0,7.47.07,27.91-24.34,1.98,38.29-10.78,66.73-10.78,66.73l-39.84,22.81s-1.42,11.75-23.77,34.11c26.97,11.97,52.49,27.2,75.97,44.48,17.1-11.52,35.37-34.81,43.95-48.44,13.76-21.82,21.69-33.06,34.12-71.29,0,0-2.38,54.09-26.45,89.54-14.82,21.82-28.72,34.61-37.23,41.22,39.63,31.71,72.6,68.97,95.66,105.31,108.78-171.94,317.49-214.79,344.47-219.29-33.59-21.69-59.52-74.07-62.43-106.6,15.61,23.81,38.36,32.01,53.7,49.2,15.34,17.19,27.51,34.52,29.1,54.62,8.2-2.38,16.4-1.85,16.4-1.85,0,0,7.61-38.27-34.52-81.21Z"/>
    <path class="cls-3" d="M421.05,740.48c-4.22,0-7.92-.51-10.9-1.67-24.41-9.48-78.9-95.27-89.63-134.73l-.71-2.62,2.22-1.57c33.11-23.4,35.77-53.68,35.8-53.98l7.75.56c-.09,1.35-2.68,32.77-36.82,58.14,12.24,40.24,64.38,119.26,84.21,126.96,17.18,6.67,72.78-15.77,92.76-24.97l3.25,7.06c-6.68,3.08-59.13,26.82-87.92,26.82Z"/>
    <path class="cls-3" d="M438.36,559.52c-5.26,0-13.59.69-24.2-7.74-.85,3.21-.66,6.69.59,9.91-1.67,2.84-4.84,7.09-9.97,9.8,7.06.55,11.78-1.8,14.28-3.58,3.62,3.28,9.1,5.49,16.62,5.49,17.56,0,29.06-11.9,35.71-22.81-4.17,2.78-27.77,8.93-33.03,8.93Z"/>
    <path class="cls-1" d="M590.26,129.94s68.05,3.77,103.36,13.29c15.47,34.72,25.92,75.65,27.11,221.93h-73.4s2.91-164.53-57.07-235.22Z"/>
    <circle class="cls-2" cx="682.12" cy="544.75" r="97.19"/>
    <path class="cls-1" d="M682.12,412.64c-72.96,0-132.11,59.15-132.11,132.11s59.15,132.11,132.11,132.11,132.11-59.15,132.11-132.11-59.15-132.11-132.11-132.11ZM682.12,641.94c-53.68,0-97.19-43.51-97.19-97.19s43.51-97.19,97.19-97.19,97.19,43.51,97.19,97.19-43.51,97.19-97.19,97.19Z"/>
    <path class="cls-2" d="M652.96,365.16v50.75c9.39-2.12,19.14-3.27,29.16-3.27,11.02,0,21.71,1.37,31.94,3.91v-51.39h-61.1Z"/>
  </g>
  <g id="_图层_3" data-name="图层_3">
    <polygon class="cls-1" points="901.9 801.49 989.79 776.49 989.79 913.64 945.85 884.55 901.9 913.64 901.9 801.49"/>
    <path class="cls-4" d="M1105.19,709.04c-356.84,13.23-478.19,239.92-478.19,239.92,0,0-121.35-226.69-478.19-239.92-8.73,0-11.31,12.7-11.31,23.41v12.5s412.72,30.75,489.49,260.88c76.78-230.13,489.49-260.88,489.49-260.88v-12.5c0-10.71-2.58-23.41-11.31-23.41Z"/>
    <path class="cls-1" d="M1177.07,971.04v-192.57c0-36.24-25.13-31.74-25.13-31.74h-18.52s-.6,81.93-.6,121.08,2.38,47.02-35.18,49.66c-282.51,21.69-396.19,120.98-419.33,142.91-20.24,19.18-51.32,16.73-51.32,16.73,0,0-31.08,2.45-51.32-16.73-23.14-21.93-136.82-121.22-419.33-142.91-37.56-2.65-35.18-10.51-35.18-49.66s-.6-121.08-.6-121.08h-18.52s-25.13-4.5-25.13,31.74v192.57s-5.29,42.46,55.02,45.63c47.87,2.52,241.58,30.85,343.68,57.6,29.23,7.66,54.57,13.59,75.85,36.5,6.63,7.14,18.98,12.04,28.17,12.7,18.38,1.32,47.35,0,47.35,0,0,0,28.96,1.32,47.35,0,9.19-.66,21.54-5.56,28.17-12.7,21.28-22.91,46.62-28.84,75.85-36.5,102.09-26.75,295.81-55.08,343.68-57.6,60.31-3.17,55.02-45.63,55.02-45.63Z"/>
  </g>
</svg>